<svg xmlns="http://www.w3.org/2000/svg">
  <defs>
    <symbol id="icon-headphone" viewBox="0 0 2134 2667.5">
      <g fill-rule="evenodd" clip-rule="evenodd" stroke-linejoin="round" stroke-miterlimit="2">
        <path d="M129.894,2000l0,-971.561c0,-517.365 419.407,-936.772 936.773,-936.772c517.365,-0 936.772,419.407 936.772,936.772l0,971.561c0,23.012 -18.655,41.667 -41.666,41.667l-298.369,-0c-23.012,-0 -41.667,-18.655 -41.667,-41.667l0,-596.737c0,-23.012 18.655,-41.667 41.667,-41.667l256.702,0l-0,-333.157c-0,-471.341 -382.098,-853.439 -853.439,-853.439c-471.342,-0 -853.44,382.098 -853.44,853.439l0,333.157l256.702,0c23.012,0 41.667,18.655 41.667,41.667l0,596.737c0,23.012 -18.655,41.667 -41.667,41.667l-298.368,-0c-23.012,-0 -41.667,-18.655 -41.667,-41.667Zm1790.21,-555.071l-215.035,0l-0,513.404l215.035,0l-0,-513.404Zm-1491.84,0l-215.036,0l0.001,513.404l215.035,0l-0,-513.404Z"/>
      </g>
    </symbol>

    <symbol id="icon-microphone" viewBox="-5.0 -10.0 110.0 135.0">
      <g fill-rule="evenodd">
        <path d="m31.449 44.688c-3.7148-2.8086-6.4102-6.7891-7.6289-11.332-3.0039-11.211 3.6602-22.754 14.871-25.758 11.211-3.0039 22.754 3.6602 25.758 14.871 1.2148 4.5352 0.87109 9.3164-0.92969 13.598l-32.074 8.6211z"/>
        <path d="m62.707 40.332 8.6289 45.938c0.1875 1.0039-0.42578 1.9805-1.4141 2.2461l-17.82 4.7773c-0.98437 0.26562-2.0078-0.27734-2.3477-1.2383l-15.484-44.074 28.438-7.6445zm-9.5117 17.043-2.1797 0.58203c-1.043 0.27734-1.6602 1.3516-1.3789 2.3906l1.5195 5.6641c0.27734 1.043 1.3516 1.6602 2.3906 1.3789l2.1797-0.58203c1.043-0.27734 1.6602-1.3516 1.3789-2.3906l-1.5195-5.6641c-0.27734-1.043-1.3516-1.6602-2.3906-1.3789z"/>
      </g>
    </symbol>

    <symbol id="icon-playlist" viewBox="0 0 2134 2667.5">
      <g fill-rule="evenodd" clip-rule="evenodd" stroke-linejoin="round" stroke-miterlimit="2">
        <path d="M625,379.566l-316.667,32.986l0,254.115c0,59.79 -48.542,108.333 -108.333,108.333c-59.791,0 -108.333,-48.543 -108.333,-108.333c-0,-59.791 48.542,-108.334 108.333,-108.334c8.603,0 16.974,1.005 25,2.904l0,-319.57c-0,-21.341 16.124,-39.232 37.35,-41.443l400,-41.666c11.738,-1.223 23.445,2.589 32.211,10.491c8.767,7.901 13.772,19.149 13.772,30.951l0,400c0,59.791 -48.542,108.333 -108.333,108.333c-59.791,0 -108.333,-48.542 -108.333,-108.333c-0,-59.791 48.542,-108.333 108.333,-108.333c8.603,-0 16.974,1.005 25,2.904l0,-115.005Zm0,-83.785l0,-49.549l-316.667,32.987l0,49.549l316.667,-32.987Zm0,304.219c0,-13.798 -11.202,-25 -25,-25c-13.798,-0 -25,11.202 -25,25c-0,13.798 11.202,25 25,25c13.798,-0 25,-11.202 25,-25Zm-400,66.667c0,-13.798 -11.202,-25 -25,-25c-13.798,-0 -25,11.202 -25,25c-0,13.798 11.202,25 25,25c13.798,-0 25,-11.202 25,-25Zm1816.67,-400.009l-0,0.017c-0,59.826 -48.499,108.325 -108.325,108.325l-933.35,0c-59.827,-0 -108.325,-48.499 -108.325,-108.325l-0,-0.017c-0,-59.826 48.498,-108.325 108.325,-108.325l933.35,0c59.826,0 108.325,48.499 108.325,108.325Zm-83.334,0c0,-13.802 -11.189,-24.991 -24.991,-24.991l-933.351,-0c-13.802,-0 -24.991,11.189 -24.991,24.991l0,0.017c0,13.803 11.189,24.992 24.992,24.992l933.35,-0c13.802,-0 24.991,-11.189 24.991,-24.992l0,-0.017Zm83.334,800l-0,0.017c-0,59.826 -48.499,108.325 -108.325,108.325l-1733.35,0c-59.827,-0 -108.325,-48.499 -108.325,-108.325l-0,-0.017c-0,-59.826 48.498,-108.325 108.325,-108.325l1733.35,0c59.826,0 108.325,48.499 108.325,108.325Zm-83.334,0c0,-13.802 -11.189,-24.991 -24.991,-24.991l-1733.35,-0c-13.802,-0 -24.991,11.189 -24.991,24.991l0,0.017c0,13.803 11.189,24.992 24.992,24.992l1733.35,-0c13.802,-0 24.991,-11.189 24.991,-24.992l0,-0.017Zm83.334,-400l-0,0.017c-0,59.826 -48.499,108.325 -108.325,108.325l-933.35,0c-59.827,-0 -108.325,-48.499 -108.325,-108.325l-0,-0.017c-0,-59.826 48.498,-108.325 108.325,-108.325l933.35,0c59.826,0 108.325,48.499 108.325,108.325Zm-83.334,0c0,-13.802 -11.189,-24.991 -24.991,-24.991l-933.351,-0c-13.802,-0 -24.991,11.189 -24.991,24.991l0,0.017c0,13.803 11.189,24.992 24.992,24.992l933.35,-0c13.802,-0 24.991,-11.189 24.991,-24.992l0,-0.017Zm83.334,800l-0,0.017c-0,59.826 -48.499,108.325 -108.325,108.325l-1733.35,0c-59.827,-0 -108.325,-48.499 -108.325,-108.325l-0,-0.017c-0,-59.826 48.498,-108.325 108.325,-108.325l1733.35,0c59.826,0 108.325,48.499 108.325,108.325Zm-83.334,0c0,-13.802 -11.189,-24.991 -24.991,-24.991l-1733.35,-0c-13.802,-0 -24.991,11.189 -24.991,24.991l0,0.017c0,13.803 11.189,24.992 24.992,24.992l1733.35,-0c13.802,-0 24.991,-11.189 24.991,-24.992l0,-0.017Z"/>
      </g>
    </symbol>

    <symbol id="icon-record" viewBox="0 0 2134 2667.5">
      <g fill-rule="evenodd" clip-rule="evenodd" stroke-linejoin="round" stroke-miterlimit="2">
        <path d="M1066.67,91.667c538.117,-0 975,436.883 975,975c-0,538.117 -436.883,975 -975,975c-538.117,-0 -975,-436.883 -975,-975c-0,-538.117 436.883,-975 975,-975Zm-0,83.333c-492.125,0 -891.667,399.542 -891.667,891.667c0,492.124 399.542,891.666 891.667,891.666c492.124,0 891.666,-399.542 891.666,-891.666c0,-492.125 -399.542,-891.667 -891.666,-891.667Z"/>
        <path d="M1066.67,691.667c206.968,-0 375,168.032 375,375c-0,206.968 -168.032,375 -375,375c-206.968,-0 -375,-168.032 -375,-375c-0,-206.968 168.032,-375 375,-375Zm-0,83.333c-160.976,0 -291.667,130.691 -291.667,291.667c0,160.975 130.691,291.666 291.667,291.666c160.975,0 291.666,-130.691 291.666,-291.666c0,-160.976 -130.691,-291.667 -291.666,-291.667Z"/>
      </g>
    </symbol>
  </defs>
</svg>