<svg xmlns="http://www.w3.org/2000/svg" xmlns:xlink="http://www.w3.org/1999/xlink" xmlns:serif="http://www.serif.com/" viewBox="0 0 2134 2667.5" version="1.1" xml:space="preserve" style="" x="0px" y="0px" fill-rule="evenodd" clip-rule="evenodd" stroke-linejoin="round" stroke-miterlimit="2"><path d="M129.894,2000l0,-971.561c0,-517.365 419.407,-936.772 936.773,-936.772c517.365,-0 936.772,419.407 936.772,936.772l0,971.561c0,23.012 -18.655,41.667 -41.666,41.667l-298.369,-0c-23.012,-0 -41.667,-18.655 -41.667,-41.667l0,-596.737c0,-23.012 18.655,-41.667 41.667,-41.667l256.702,0l-0,-333.157c-0,-471.341 -382.098,-853.439 -853.439,-853.439c-471.342,-0 -853.44,382.098 -853.44,853.439l0,333.157l256.702,0c23.012,0 41.667,18.655 41.667,41.667l0,596.737c0,23.012 -18.655,41.667 -41.667,41.667l-298.368,-0c-23.012,-0 -41.667,-18.655 -41.667,-41.667Zm1790.21,-555.071l-215.035,0l-0,513.404l215.035,0l-0,-513.404Zm-1491.84,0l-215.036,0l0.001,513.404l215.035,0l-0,-513.404Z"/><text x="0" y="2149" fill="#000000" font-size="5px" font-weight="bold" font-family="'Helvetica Neue', Helvetica, Arial-Unicode, Arial, Sans-serif">by Muhammad Nur Auliady Pamungkas</text><text x="0" y="2154" fill="#000000" font-size="5px" font-weight="bold" font-family="'Helvetica Neue', Helvetica, Arial-Unicode, Arial, Sans-serif">from the Noun Project</text></svg>