<svg xmlns="http://www.w3.org/2000/svg" version="1.1" viewBox="-5.0 -10.0 110.0 135.0">
 <g fill-rule="evenodd">
  <path d="m31.449 44.688c-3.7148-2.8086-6.4102-6.7891-7.6289-11.332-3.0039-11.211 3.6602-22.754 14.871-25.758 11.211-3.0039 22.754 3.6602 25.758 14.871 1.2148 4.5352 0.87109 9.3164-0.92969 13.598l-32.074 8.6211z"/>
  <path d="m62.707 40.332 8.6289 45.938c0.1875 1.0039-0.42578 1.9805-1.4141 2.2461l-17.82 4.7773c-0.98437 0.26562-2.0078-0.27734-2.3477-1.2383l-15.484-44.074 28.438-7.6445zm-9.5117 17.043-2.1797 0.58203c-1.043 0.27734-1.6602 1.3516-1.3789 2.3906l1.5195 5.6641c0.27734 1.043 1.3516 1.6602 2.3906 1.3789l2.1797-0.58203c1.043-0.27734 1.6602-1.3516 1.3789-2.3906l-1.5195-5.6641c-0.27734-1.043-1.3516-1.6602-2.3906-1.3789z"/>
 </g>
<text x="0.0" y="117.5" font-size="5.0" font-weight="bold" font-family="Arbeit Regular, Helvetica, Arial-Unicode, Arial, Sans-serif" fill="#000000">by Muhammad Nur Auliady Pamungkas</text><text x="0.0" y="122.5" font-size="5.0" font-weight="bold" font-family="Arbeit Regular, Helvetica, Arial-Unicode, Arial, Sans-serif" fill="#000000">from Noun Project</text></svg>