<svg xmlns="http://www.w3.org/2000/svg" xmlns:xlink="http://www.w3.org/1999/xlink" xmlns:serif="http://www.serif.com/" viewBox="0 0 2134 2667.5" version="1.1" xml:space="preserve" style="" x="0px" y="0px" fill-rule="evenodd" clip-rule="evenodd" stroke-linejoin="round" stroke-miterlimit="2"><path d="M1066.67,91.667c538.117,-0 975,436.883 975,975c-0,538.117 -436.883,975 -975,975c-538.117,-0 -975,-436.883 -975,-975c-0,-538.117 436.883,-975 975,-975Zm-0,83.333c-492.125,0 -891.667,399.542 -891.667,891.667c0,492.124 399.542,891.666 891.667,891.666c492.124,0 891.666,-399.542 891.666,-891.666c0,-492.125 -399.542,-891.667 -891.666,-891.667Z"/><path d="M1066.67,691.667c206.968,-0 375,168.032 375,375c-0,206.968 -168.032,375 -375,375c-206.968,-0 -375,-168.032 -375,-375c-0,-206.968 168.032,-375 375,-375Zm-0,83.333c-160.976,0 -291.667,130.691 -291.667,291.667c0,160.975 130.691,291.666 291.667,291.666c160.975,0 291.666,-130.691 291.666,-291.666c0,-160.976 -130.691,-291.667 -291.666,-291.667Z"/><text x="0" y="2149" fill="#000000" font-size="5px" font-weight="bold" font-family="'Helvetica Neue', Helvetica, Arial-Unicode, Arial, Sans-serif">by Muhammad Nur Auliady Pamungkas</text><text x="0" y="2154" fill="#000000" font-size="5px" font-weight="bold" font-family="'Helvetica Neue', Helvetica, Arial-Unicode, Arial, Sans-serif">from the Noun Project</text></svg>