<svg xmlns="http://www.w3.org/2000/svg" xmlns:xlink="http://www.w3.org/1999/xlink" xmlns:serif="http://www.serif.com/" viewBox="0 0 2134 2667.5" version="1.1" xml:space="preserve" style="" x="0px" y="0px" fill-rule="evenodd" clip-rule="evenodd" stroke-linejoin="round" stroke-miterlimit="2"><path d="M625,379.566l-316.667,32.986l0,254.115c0,59.79 -48.542,108.333 -108.333,108.333c-59.791,0 -108.333,-48.543 -108.333,-108.333c-0,-59.791 48.542,-108.334 108.333,-108.334c8.603,0 16.974,1.005 25,2.904l0,-319.57c-0,-21.341 16.124,-39.232 37.35,-41.443l400,-41.666c11.738,-1.223 23.445,2.589 32.211,10.491c8.767,7.901 13.772,19.149 13.772,30.951l0,400c0,59.791 -48.542,108.333 -108.333,108.333c-59.791,0 -108.333,-48.542 -108.333,-108.333c-0,-59.791 48.542,-108.333 108.333,-108.333c8.603,-0 16.974,1.005 25,2.904l0,-115.005Zm0,-83.785l0,-49.549l-316.667,32.987l0,49.549l316.667,-32.987Zm0,304.219c0,-13.798 -11.202,-25 -25,-25c-13.798,-0 -25,11.202 -25,25c-0,13.798 11.202,25 25,25c13.798,-0 25,-11.202 25,-25Zm-400,66.667c0,-13.798 -11.202,-25 -25,-25c-13.798,-0 -25,11.202 -25,25c-0,13.798 11.202,25 25,25c13.798,-0 25,-11.202 25,-25Zm1816.67,-400.009l-0,0.017c-0,59.826 -48.499,108.325 -108.325,108.325l-933.35,0c-59.827,-0 -108.325,-48.499 -108.325,-108.325l-0,-0.017c-0,-59.826 48.498,-108.325 108.325,-108.325l933.35,0c59.826,0 108.325,48.499 108.325,108.325Zm-83.334,0c0,-13.802 -11.189,-24.991 -24.991,-24.991l-933.351,-0c-13.802,-0 -24.991,11.189 -24.991,24.991l0,0.017c0,13.803 11.189,24.992 24.992,24.992l933.35,-0c13.802,-0 24.991,-11.189 24.991,-24.992l0,-0.017Zm83.334,800l-0,0.017c-0,59.826 -48.499,108.325 -108.325,108.325l-1733.35,0c-59.827,-0 -108.325,-48.499 -108.325,-108.325l-0,-0.017c-0,-59.826 48.498,-108.325 108.325,-108.325l1733.35,0c59.826,0 108.325,48.499 108.325,108.325Zm-83.334,0c0,-13.802 -11.189,-24.991 -24.991,-24.991l-1733.35,-0c-13.802,-0 -24.991,11.189 -24.991,24.991l0,0.017c0,13.803 11.189,24.992 24.992,24.992l1733.35,-0c13.802,-0 24.991,-11.189 24.991,-24.992l0,-0.017Zm83.334,-400l-0,0.017c-0,59.826 -48.499,108.325 -108.325,108.325l-933.35,0c-59.827,-0 -108.325,-48.499 -108.325,-108.325l-0,-0.017c-0,-59.826 48.498,-108.325 108.325,-108.325l933.35,0c59.826,0 108.325,48.499 108.325,108.325Zm-83.334,0c0,-13.802 -11.189,-24.991 -24.991,-24.991l-933.351,-0c-13.802,-0 -24.991,11.189 -24.991,24.991l0,0.017c0,13.803 11.189,24.992 24.992,24.992l933.35,-0c13.802,-0 24.991,-11.189 24.991,-24.992l0,-0.017Zm83.334,800l-0,0.017c-0,59.826 -48.499,108.325 -108.325,108.325l-1733.35,0c-59.827,-0 -108.325,-48.499 -108.325,-108.325l-0,-0.017c-0,-59.826 48.498,-108.325 108.325,-108.325l1733.35,0c59.826,0 108.325,48.499 108.325,108.325Zm-83.334,0c0,-13.802 -11.189,-24.991 -24.991,-24.991l-1733.35,-0c-13.802,-0 -24.991,11.189 -24.991,24.991l0,0.017c0,13.803 11.189,24.992 24.992,24.992l1733.35,-0c13.802,-0 24.991,-11.189 24.991,-24.992l0,-0.017Zm83.334,400l-0,0.017c-0,59.826 -48.499,108.325 -108.325,108.325l-1733.35,-0c-59.827,-0 -108.325,-48.499 -108.325,-108.325l-0,-0.017c-0,-59.826 48.498,-108.325 108.325,-108.325l1733.35,0c59.826,0 108.325,48.499 108.325,108.325Zm-83.334,0c0,-13.802 -11.189,-24.991 -24.991,-24.991l-1733.35,-0c-13.802,-0 -24.991,11.189 -24.991,24.991l0,0.017c0,13.803 11.189,24.992 24.992,24.992l1733.35,-0c13.802,-0 24.991,-11.189 24.991,-24.992l0,-0.017Z"/><text x="0" y="2149" fill="#000000" font-size="5px" font-weight="bold" font-family="'Helvetica Neue', Helvetica, Arial-Unicode, Arial, Sans-serif">by Muhammad Nur Auliady Pamungkas</text><text x="0" y="2154" fill="#000000" font-size="5px" font-weight="bold" font-family="'Helvetica Neue', Helvetica, Arial-Unicode, Arial, Sans-serif">from the Noun Project</text></svg>